<svg width="73" height="68" viewBox="0 0 73 68" fill="none" xmlns="http://www.w3.org/2000/svg">
<path d="M26.0062 22.7374H25.5499V20.1874H26.3483C27.7171 20.1874 28.9718 19.1249 28.9718 17.7437C28.9718 16.3624 27.8312 15.2999 26.3483 15.2999H19.5046C18.1358 15.2999 16.8812 16.3624 16.8812 17.7437C16.8812 19.1249 18.0218 20.1874 19.5046 20.1874H20.303V22.7374H19.8468C11.8624 22.7374 5.36084 28.7937 5.36084 36.2312V62.0499C5.36084 64.2812 7.2999 66.0874 9.69522 66.0874H36.0437C38.439 66.0874 40.378 64.2812 40.378 62.0499V36.3374C40.4921 28.7937 33.9905 22.7374 26.0062 22.7374ZM19.9608 27.5187H26.0062C31.139 27.5187 35.2452 31.3437 35.3593 36.0187H10.6077C10.6077 31.3437 14.828 27.5187 19.9608 27.5187ZM10.4937 61.4124V40.9062H35.3593V61.4124H10.4937Z" fill="white"/>
<path d="M55.6625 20.1875C54.2937 20.1875 53.0391 21.25 53.0391 22.6312V22.8438C53.0391 24.1188 54.1797 25.2875 55.6625 25.2875C57.1453 25.2875 58.2859 24.225 58.2859 22.8438V22.6312C58.1719 21.25 57.0312 20.1875 55.6625 20.1875Z" fill="white"/>
<path d="M55.6625 9.13745C54.2937 9.13745 53.0391 10.2 53.0391 11.5812V11.6875C53.0391 12.9625 54.1797 14.1312 55.6625 14.1312C57.1453 14.1312 58.2859 13.0687 58.2859 11.6875V11.475C58.1719 10.2 57.0312 9.13745 55.6625 9.13745Z" fill="white"/>
<path d="M65.0155 27.0938C63.6468 27.0938 62.3921 28.1562 62.3921 29.5375V29.75C62.3921 31.025 63.5327 32.1937 65.0155 32.1937C66.4983 32.1937 67.639 31.1312 67.639 29.75V29.5375C67.639 28.1562 66.3843 27.0938 65.0155 27.0938Z" fill="white"/>
<path d="M45.6249 14.6625C44.2562 14.6625 43.0015 15.725 43.0015 17.1062V17.3187C43.0015 18.5937 44.1421 19.7625 45.6249 19.7625C47.1077 19.7625 48.2483 18.7 48.2483 17.3187V17C48.2483 15.725 47.1077 14.6625 45.6249 14.6625Z" fill="white"/>
<path d="M65.0155 14.6625C63.6468 14.6625 62.3921 15.725 62.3921 17.1062V17.3187C62.3921 18.5937 63.5327 19.7625 65.0155 19.7625C66.4983 19.7625 67.639 18.7 67.639 17.3187V17C67.639 15.725 66.3843 14.6625 65.0155 14.6625Z" fill="white"/>
<path d="M65.0155 1.91248C63.6468 1.91248 62.3921 2.97498 62.3921 4.35623V4.56873C62.3921 5.84373 63.5327 7.01248 65.0155 7.01248C66.4983 7.01248 67.639 5.94998 67.639 4.56873V4.24998C67.639 2.97498 66.3843 1.91248 65.0155 1.91248Z" fill="white"/>
</svg>
